MoBL_ARMS_module2_4_allmuscles elbow_states	
version=1	
nRows=253	
nColumns=2	
inDegrees=yes	
	
# SIMM Motion File Header:	
name MoBL_ARMS_module2_4_allmuscles elbow_states	
datacolumns 2	
datarows 253	
otherdata 1	
range 3.271558675 3.809449666	
endheader	
time	elbow_flexion
3.271558675	117.0859791
3.273691289	117.1495393
3.275823904	117.2116784
3.277956519	117.2724022
3.279867661	117.325622
3.281778804	117.3777133
3.284161384	117.4410798
3.286301916	117.4965241
3.288442448	117.550567
3.290582979	117.6032096
3.292723511	117.6544501
3.294864043	117.7042831
3.296737837	117.7467451
3.298611632	117.7881173
3.30104162	117.8401388
3.303215965	117.8851161
3.30539031	117.9285959
3.307564655	117.9705603
3.309462264	118.0059267
3.311359872	118.0401017
3.313757555	118.0815475
3.315911919	118.1171044
3.318066284	118.1510399
3.320220648	118.183329
3.322375013	118.2139484
3.324269009	118.23947
3.326163006	118.263668
3.32845124	118.2911151
3.330739475	118.3165791
3.332745261	118.3372474
3.334751048	118.3563547
3.336756835	118.3738872
3.339214773	118.3932084
3.341140419	118.4066714
3.343066064	118.4186577
3.345467448	118.4315297
3.347868833	118.4420927
3.349546286	118.4480999
3.351223739	118.452979
3.354111928	118.4587402
3.356686351	118.4610696
3.358406293	118.4611601
3.360475924	118.4597225
3.363241868	118.4551865
3.365124479	118.450406
3.36700709	118.4442699
3.369391608	118.4345755
3.371776125	118.4227624
3.373659276	118.4119584
3.375542428	118.3998716
3.3779248	118.382771
3.380307172	118.3636844
3.382192015	118.347203
3.384076858	118.3295246
3.386457164	118.3055226
3.38883747	118.2796896
3.390722536	118.2579594
3.392607602	118.2351251
3.394987808	118.2047407
3.397368014	118.172651
3.399252911	118.1460477
3.401137808	118.1184073
3.403518257	118.0820399
3.405898706	118.044068
3.407783528	118.0128796
3.40966835	117.9807098
3.412048881	117.9386897
3.414429412	117.8951328
3.416314239	117.8595663
3.418199066	117.8230553
3.420579568	117.7756084
3.42296007	117.7266931
3.42484493	117.6869368
3.426729789	117.646288
3.429110262	117.5936965
3.431490735	117.5397317
3.43337558	117.4960482
3.435260425	117.4515373
3.437640919	117.3941627
3.440021413	117.3355232
3.441906247	117.2882165
3.44379108	117.2401521
3.446171505	117.178393
3.44855193	117.115486
3.450436918	117.0648801
3.452321907	117.0135926
3.454702219	116.9478779
3.457082531	116.8811275
3.458967394	116.8275525
3.460852257	116.7733551
3.463232743	116.7040355
3.465613229	116.6337679
3.467498056	116.5774775
3.469382882	116.5206254
3.471763399	116.4480423
3.474143916	116.374617
3.476028753	116.3159026
3.477913589	116.2566938
3.480294083	116.1812336
3.482674576	116.105047
3.484559432	116.0442345
3.486444288	115.9830143
3.488824766	115.90515
3.491205244	115.8267211
3.493090088	115.7642551
3.494974931	115.7014937
3.497355427	115.6218492
3.499735923	115.5418355
3.501620762	115.4782587
3.503505602	115.4145158
3.505886088	115.3338161
3.508266573	115.2529483
3.510151437	115.1888312
3.512036301	115.1246639
3.51441677	115.0435894
3.516797238	114.9625186
3.518682083	114.8983578
3.520566927	114.8342448
3.522947422	114.7533659
3.525327918	114.6726177
3.527212756	114.6087915
3.529097595	114.545074
3.531478095	114.464773
3.533858594	114.3846835
3.535743436	114.321432
3.537628278	114.2583327
3.540008766	114.1788699
3.542389254	114.0996779
3.544274109	114.037178
3.546158965	113.9748691
3.548539444	113.8964644
3.550919923	113.8183994
3.552804766	113.7568416
3.554689609	113.6955179
3.557070106	113.6184175
3.559450602	113.5417255
3.561335442	113.4813053
3.563220281	113.4211638
3.565600772	113.3456197
3.567981263	113.2705527
3.569866118	113.2114648
3.571750973	113.1526947
3.574131453	113.0789365
3.576511932	113.0057107
3.578396774	112.948117
3.580281615	112.8908702
3.582662115	112.8190726
3.585042616	112.7478459
3.586927453	112.691861
3.58881229	112.6362446
3.591192774	112.5665372
3.593573258	112.4974375
3.59545813	112.4431652
3.597343002	112.3892918
3.59972346	112.321838
3.602103918	112.2550545
3.603988764	112.2026634
3.60587361	112.1507136
3.608254104	112.0857482
3.610634598	112.0215211
3.612519436	111.9712035
3.614404274	111.9213701
3.616784776	111.8591375
3.619165277	111.7977078
3.621050117	111.749648
3.622934956	111.7021058
3.625315449	111.6428053
3.627695941	111.5843357
3.629580793	111.5386266
3.631465644	111.4934321
3.633846128	111.4370817
3.636226612	111.381535
3.638111454	111.3381152
3.639996297	111.295183
3.642376793	111.2416419
3.64475729	111.1888373
3.64664213	111.1475311
3.64852697	111.1066539
3.650907461	111.0556173
3.653287952	111.005212
3.655172806	110.9657298
3.65705766	110.92661
3.659438141	110.8776973
3.661818622	110.829305
3.663703464	110.7913354
3.665588307	110.7536544
3.667968804	110.7064516
3.6703493	110.6596513
3.67223414	110.6228607
3.674118979	110.5862877
3.676499479	110.5403832
3.678879978	110.4947688
3.680764818	110.4588371
3.682649659	110.4230525
3.685030124	110.3780461
3.68741059	110.3332224
3.689295488	110.2978391
3.691180385	110.2625345
3.693560812	110.2180356
3.695941238	110.1736051
3.697826085	110.1384533
3.699710931	110.1033107
3.70209143	110.0589162
3.70447193	110.014479
3.706356762	109.9792411
3.708241594	109.943938
3.710622102	109.8992333
3.71300261	109.8543698
3.71488745	109.8187152
3.71677229	109.7829268
3.719152788	109.7375115
3.721533286	109.6918257
3.723418124	109.655441
3.725302963	109.6188553
3.727683467	109.5723437
3.730063971	109.5254742
3.731948807	109.4880994
3.733833643	109.4504828
3.73621414	109.402618
3.738594636	109.3543438
3.740479488	109.3158229
3.742364341	109.2770333
3.744744822	109.2276538
3.747125304	109.177833
3.749010149	109.1380689
3.750894995	109.0980228
3.753275487	109.0470406
3.75565598	108.9956034
3.75754082	108.9545524
3.759425661	108.9132149
3.761806159	108.8605975
3.764186658	108.8075241
3.766071498	108.7651789
3.767956338	108.7225492
3.770336783	108.668304
3.772717228	108.6136055
3.774602162	108.5699715
3.776487096	108.5260538
3.778867477	108.470188
3.781247858	108.4138641
3.78311562	108.3693285
3.784983381	108.3244591
3.787408613	108.2655882
3.789833845	108.2058
3.79169085	108.1592014
3.793547854	108.1117167
3.795404859	108.0631863
3.798055663	107.9918472
3.800706467	107.9178485
3.802254817	107.8732858
3.804233689	107.8147363
3.807285926	107.7203707
3.809449666	107.649893
